<svg id="visual" viewBox="0 0 900 600" width="900" height="600" xmlns="http://www.w3.org/2000/svg" xmlns:xlink="http://www.w3.org/1999/xlink" version="1.1"><rect x="0" y="0" width="900" height="600" fill="#ffffff"></rect><defs><linearGradient id="grad1_0" x1="33.3%" y1="100%" x2="100%" y2="0%"><stop offset="20%" stop-color="#ffffff" stop-opacity="1"></stop><stop offset="80%" stop-color="#ffffff" stop-opacity="1"></stop></linearGradient></defs><defs><linearGradient id="grad2_0" x1="0%" y1="100%" x2="66.7%" y2="0%"><stop offset="20%" stop-color="#ffffff" stop-opacity="1"></stop><stop offset="80%" stop-color="#ffffff" stop-opacity="1"></stop></linearGradient></defs><g transform="translate(900, 600)"><path d="M-216.3 0C-213 -27.9 -209.7 -55.8 -199.9 -82.8C-190 -109.7 -173.5 -135.8 -151.3 -151.3C-129.1 -166.9 -101.2 -172 -75 -181.1C-48.8 -190.2 -24.4 -203.3 0 -216.3L0 0Z" fill="#343a40"></path></g><g transform="translate(0, 0)"><path d="M216.3 0C213.2 27.9 210.1 55.8 199.9 82.8C189.6 109.7 172.3 135.7 149.2 149.2C126.1 162.7 97.4 163.7 71.6 172.8C45.7 181.9 22.9 199.1 0 216.3L0 0Z" fill="#343a40"></path></g></svg>