<svg id="visual" viewBox="0 0 900 600" width="900" height="600" xmlns="http://www.w3.org/2000/svg" xmlns:xlink="http://www.w3.org/1999/xlink" version="1.1"><rect x="0" y="0" width="900" height="600" fill="#ffffff"></rect><defs><linearGradient id="grad1_0" x1="33.3%" y1="0%" x2="100%" y2="100%"><stop offset="20%" stop-color="#ffffff" stop-opacity="1"></stop><stop offset="80%" stop-color="#ffffff" stop-opacity="1"></stop></linearGradient></defs><defs><linearGradient id="grad2_0" x1="0%" y1="0%" x2="66.7%" y2="100%"><stop offset="20%" stop-color="#ffffff" stop-opacity="1"></stop><stop offset="80%" stop-color="#ffffff" stop-opacity="1"></stop></linearGradient></defs><g transform="translate(900, 0)"><path d="M0 216.3C-33.2 218.3 -66.3 220.3 -82.8 199.9C-99.2 179.5 -99 136.8 -114.6 114.6C-130.1 92.4 -161.5 90.7 -181.1 75C-200.7 59.3 -208.5 29.7 -216.3 0L0 0Z" fill="#800020"></path></g><g transform="translate(0, 600)"><path d="M0 -216.3C21.4 -190.4 42.8 -164.4 62 -149.7C81.2 -134.9 98.3 -131.5 123.7 -123.7C149.2 -116 183 -104.1 199.9 -82.8C216.7 -61.5 216.5 -30.7 216.3 0L0 0Z" fill="#800020"></path></g></svg>