<svg id="visual" viewBox="0 0 900 600" width="900" height="600" xmlns="http://www.w3.org/2000/svg" xmlns:xlink="http://www.w3.org/1999/xlink" version="1.1"><rect x="0" y="0" width="900" height="600" fill="#ffffff"></rect><defs><linearGradient id="grad1_0" x1="33.3%" y1="0%" x2="100%" y2="100%"><stop offset="20%" stop-color="#ffffff" stop-opacity="1"></stop><stop offset="80%" stop-color="#ffffff" stop-opacity="1"></stop></linearGradient></defs><defs><linearGradient id="grad2_0" x1="0%" y1="0%" x2="66.7%" y2="100%"><stop offset="20%" stop-color="#ffffff" stop-opacity="1"></stop><stop offset="80%" stop-color="#ffffff" stop-opacity="1"></stop></linearGradient></defs><g transform="translate(900, 0)"><path d="M0 216.3C-23.2 201.4 -46.3 186.4 -73.9 178.3C-101.4 170.2 -133.3 169 -153 153C-172.6 136.9 -180 106 -188.5 78.1C-197 50.1 -206.7 25 -216.3 0L0 0Z" fill="#b00a0a"></path></g><g transform="translate(0, 600)"><path d="M0 -216.3C28.1 -213.2 56.2 -210.1 82.8 -199.9C109.4 -189.6 134.6 -172.2 149.9 -149.9C165.2 -127.6 170.7 -100.4 180.2 -74.6C189.6 -48.8 203 -24.4 216.3 0L0 0Z" fill="#b00a0a"></path></g></svg>