<svg id="visual" viewBox="0 0 900 600" width="900" height="600" xmlns="http://www.w3.org/2000/svg" xmlns:xlink="http://www.w3.org/1999/xlink" version="1.1"><g transform="translate(892.670567423811 -4.496152859698725)"><path d="M375.1 -443.8C475 -363.1 537.4 -234.4 558 -100.9C578.5 32.7 557.3 171.1 495.4 293.3C433.5 415.6 331 521.6 207.5 563.9C84 606.1 -60.4 584.5 -179.7 526.7C-299 469 -393.1 375.1 -456.2 264.2C-519.4 153.2 -551.7 25.1 -550.9 -117.5C-550 -260.2 -516.1 -417.3 -418.7 -498.5C-321.4 -579.7 -160.7 -584.8 -11.6 -571.1C137.6 -557.3 275.1 -524.5 375.1 -443.8" fill="#000000"></path></g></svg>