<svg id="visual" viewBox="0 0 900 600" width="900" height="600" xmlns="http://www.w3.org/2000/svg" xmlns:xlink="http://www.w3.org/1999/xlink" version="1.1"><path d="M0 318L21.5 321.5C43 325 86 332 128.8 341.3C171.7 350.7 214.3 362.3 257.2 369.5C300 376.7 343 379.3 385.8 372.2C428.7 365 471.3 348 514.2 370C557 392 600 453 642.8 458.2C685.7 463.3 728.3 412.7 771.2 385.5C814 358.3 857 354.7 878.5 352.8L900 351L900 601L878.5 601C857 601 814 601 771.2 601C728.3 601 685.7 601 642.8 601C600 601 557 601 514.2 601C471.3 601 428.7 601 385.8 601C343 601 300 601 257.2 601C214.3 601 171.7 601 128.8 601C86 601 43 601 21.5 601L0 601Z" fill="#000000" stroke-linecap="round" stroke-linejoin="miter"></path></svg>